<?xml version="1.0" standalone="no"?>
<!DOCTYPE svg PUBLIC "-//W3C//DTD SVG 20010904//EN"
 "http://www.w3.org/TR/2001/REC-SVG-20010904/DTD/svg10.dtd">
<svg version="1.0" xmlns="http://www.w3.org/2000/svg"
 width="700.000000pt" height="700.000000pt" viewBox="0 0 700.000000 700.000000"
 preserveAspectRatio="xMidYMid meet">
<metadata>
Created by potrace 1.11, written by Peter Selinger 2001-2013
</metadata>
<g transform="translate(0.000000,700.000000) scale(0.100000,-0.100000)"
fill="#000000" stroke="none">
<path d="M3297 6993 c-3 -7 -2 -1217 2 -1251 1 -10 45 -12 203 -10 l203 3 0
633 0 632 -202 0 c-111 0 -204 -3 -206 -7z"/>
<path d="M2270 6774 c-47 -19 -127 -52 -178 -72 -86 -34 -92 -39 -87 -60 5
-21 223 -556 260 -637 7 -16 56 -136 110 -265 53 -129 100 -239 104 -243 7 -7
50 9 186 68 17 7 67 28 112 47 l81 34 -162 390 c-89 214 -197 476 -241 582
-44 105 -84 192 -90 192 -5 0 -48 -16 -95 -36z"/>
<path d="M4591 6727 c-30 -73 -78 -187 -101 -242 -4 -11 -15 -36 -24 -57 -9
-20 -16 -39 -16 -42 0 -3 -13 -35 -30 -71 -16 -36 -30 -68 -30 -70 0 -5 -142
-351 -160 -390 -29 -63 -80 -191 -80 -201 0 -7 6 -14 13 -17 6 -3 88 -37 181
-76 94 -39 173 -68 177 -64 4 5 61 139 127 298 66 160 172 416 236 569 64 153
116 285 116 292 0 8 -7 14 -15 14 -8 0 -23 4 -33 10 -29 16 -307 130 -317 130
-6 0 -25 -37 -44 -83z"/>
<path d="M1066 5991 l-145 -146 449 -447 448 -448 141 141 c78 78 141 145 141
149 0 4 -200 208 -444 452 l-445 444 -145 -145z"/>
<path d="M5343 5693 c-244 -244 -443 -448 -443 -453 0 -4 64 -71 141 -149
l142 -141 222 223 c122 122 323 324 447 448 l226 226 -146 145 -147 144 -442
-443z"/>
<path d="M941 4228 c-8 -13 -41 -75 -74 -138 -32 -63 -83 -160 -112 -215 -29
-55 -83 -158 -120 -230 -37 -71 -82 -157 -100 -190 -17 -33 -83 -159 -145
-280 -62 -121 -119 -229 -127 -240 -31 -45 -33 -45 337 -45 l350 0 0 -1445 0
-1445 2550 0 2550 0 0 1445 0 1445 343 1 c188 1 348 1 355 0 8 -1 0 23 -21 61
-19 35 -74 140 -122 233 -94 181 -161 310 -230 440 -23 44 -85 163 -138 265
-53 102 -116 223 -141 270 l-44 85 -2549 3 -2548 2 -14 -22z"/>
</g>
</svg>
